<svg width="100" height="100" viewBox="0 0 100 100" fill="none" xmlns="http://www.w3.org/2000/svg">
<g clip-path="url(#clip0_11_2)">
<path d="M62.0898 82.5586C57.8906 90.9375 53.2617 93.75 50 93.75C48.457 93.75 46.6211 93.125 44.668 91.6016L43.3203 95.2344C42.7539 96.7578 41.8164 98.1055 40.6055 99.1211C43.6523 99.707 46.7773 100 50 100C77.6172 100 100 77.6172 100 50C100 22.3828 77.6172 0 50 0C22.3828 0 0 22.3828 0 50C0 53.2031 0.292969 56.3477 0.878906 59.3945C1.91406 58.1836 3.24219 57.2461 4.76562 56.6797L6.64062 55.9961C6.36719 54.043 6.23047 52.0508 6.23047 50.0195C6.23047 45.6836 6.85547 41.4844 8.04688 37.5195H25.7812C25.293 41.2695 25.0195 45.1953 25 49.2383L31.2891 46.9141C31.3867 43.6523 31.6602 40.5078 32.0898 37.5195H67.9102C68.457 41.4648 68.75 45.6641 68.75 50.0195C68.75 54.375 68.457 58.5742 67.9102 62.5195H55.3906L53.0859 68.7695H66.7969C65.6445 74.043 64.0234 78.7109 62.0898 82.5781V82.5586ZM37.9102 17.4414C42.1094 9.0625 46.7383 6.25 50 6.25C53.2617 6.25 57.8906 9.0625 62.0898 17.4414C64.0234 21.3086 65.6445 25.9766 66.7969 31.25H33.2031C34.3555 25.9766 35.9766 21.3086 37.9102 17.4414ZM75 50C75 45.6836 74.7266 41.5039 74.2188 37.5H91.9531C93.125 41.4648 93.7695 45.6641 93.7695 50C93.7695 54.3359 93.1445 58.5352 91.9531 62.5H74.2188C74.7266 58.4961 75 54.3164 75 50ZM73.1836 31.25C71.3086 21.9531 68.0664 14.0625 63.9648 8.53516C75.2539 12.3438 84.4727 20.6055 89.5312 31.25H73.1836ZM10.4688 31.25C15.5273 20.6055 24.7461 12.3242 36.0352 8.53516C31.9336 14.0625 28.7109 21.9727 26.8164 31.25H10.4688ZM73.1836 68.75H89.5508C84.4922 79.3945 75.2734 87.6758 63.9844 91.4648C68.0859 85.9375 71.3281 78.0273 73.2031 68.75H73.1836ZM52.9297 51.0742C53.3594 49.9219 53.0664 48.6523 52.207 47.793C51.3477 46.9336 50.0586 46.6406 48.9258 47.0703L6.93359 62.5391C5.72266 62.9883 4.92188 64.1211 4.88281 65.4102C4.84375 66.6992 5.625 67.8711 6.81641 68.3594L21.2695 74.3164L0.917969 94.668C-0.292969 95.8789 -0.292969 97.8711 0.917969 99.082C2.12891 100.293 4.12109 100.293 5.33203 99.082L25.6836 78.7305L31.6406 93.1836C32.1289 94.375 33.3008 95.1367 34.5898 95.1172C35.8789 95.0977 37.0117 94.2773 37.4609 93.0664L52.9297 51.0742ZM27.9883 70.3125L16.6211 65.625L44.7266 55.2734L34.375 83.3789L29.6875 72.0117C29.375 71.25 28.75 70.625 27.9883 70.3125Z" fill="#717171"/>
</g>
<defs>
<clipPath id="clip0_11_2">
<rect width="100" height="100" fill="white"/>
</clipPath>
</defs>
</svg>
