<svg width="100" height="100" viewBox="0 0 100 100" fill="none" xmlns="http://www.w3.org/2000/svg">
<mask id="mask0_12_14" style="mask-type:luminance" maskUnits="userSpaceOnUse" x="1" y="0" width="99" height="99">
<path d="M99.4878 0H1.48633V98.0009H99.4878V0Z" fill="white"/>
</mask>
<g mask="url(#mask0_12_14)">
<path fill-rule="evenodd" clip-rule="evenodd" d="M99.4864 49.0033C99.4864 76.0656 77.5481 98.0039 50.4855 98.0039C23.4233 98.0039 1.48486 76.0656 1.48486 49.0033C1.48486 21.9412 23.4233 0.00292969 50.4855 0.00292969C77.5481 0.00292969 99.4864 21.9412 99.4864 49.0033Z" fill="white"/>
<path fill-rule="evenodd" clip-rule="evenodd" d="M99.4864 49.0027C99.4864 76.0647 77.5481 98.003 50.4855 98.003C23.4233 98.003 1.48486 76.0647 1.48486 49.0027C1.48486 21.9405 23.4233 0.00219727 50.4855 0.00219727C77.5481 0.00219727 99.4864 21.9405 99.4864 49.0027ZM52.8226 33.1468C48.0564 35.1289 38.5311 39.2321 24.2464 45.4556C21.9268 46.378 20.7116 47.2803 20.601 48.1627C20.4141 49.6539 22.2815 50.2412 24.8245 51.0409C25.1704 51.1495 25.5288 51.2624 25.8963 51.3818C28.3982 52.195 31.7637 53.1465 33.5131 53.1842C35.1002 53.2186 36.8717 52.5642 38.8273 51.2212C52.1737 42.2121 59.0634 37.6583 59.4961 37.56C59.8011 37.4909 60.224 37.4039 60.5105 37.6586C60.797 37.913 60.7687 38.3953 60.7384 38.5247C60.5534 39.3136 53.2232 46.1286 49.4296 49.655C48.247 50.7545 47.4081 51.5345 47.2367 51.7127C46.8526 52.1115 46.4611 52.4889 46.0846 52.8518C43.7605 55.0924 42.0173 56.7727 46.1814 59.5165C48.1823 60.835 49.7834 61.9256 51.3808 63.0133C53.1252 64.2012 54.8652 65.3862 57.1167 66.8621C57.6902 67.238 58.2379 67.6286 58.7714 68.0089C60.8017 69.4562 62.6258 70.7565 64.879 70.5492C66.1884 70.4286 67.5408 69.1974 68.2279 65.5253C69.8511 56.8474 73.042 38.0447 73.7793 30.2965C73.844 29.6177 73.7626 28.749 73.6973 28.3677C73.6323 27.9863 73.4958 27.4429 72.9999 27.0407C72.4128 26.5643 71.5067 26.4638 71.1011 26.471C69.2581 26.5035 66.4305 27.4867 52.8226 33.1468Z" fill="black"/>
</g>
</svg>
