<svg width="34" height="34" viewBox="0 0 34 34" fill="none" xmlns="http://www.w3.org/2000/svg">
<g clip-path="url(#clip0_6_3370)">
<path fill-rule="evenodd" clip-rule="evenodd" d="M33.8254 16.6609C33.8254 25.862 26.3664 33.321 17.1651 33.321C7.96394 33.321 0.504883 25.862 0.504883 16.6609C0.504883 7.45974 7.96394 0.000732422 17.1651 0.000732422C26.3664 0.000732422 33.8254 7.45974 33.8254 16.6609ZM17.9597 11.2699C16.3392 11.9438 13.1006 13.3389 8.2438 15.4549C7.45513 15.7685 7.04199 16.0753 7.00438 16.3753C6.94082 16.8823 7.57575 17.082 8.44037 17.3539C8.55797 17.3908 8.67983 17.4292 8.80476 17.4698C9.65541 17.7463 10.7997 18.0698 11.3945 18.0826C11.9341 18.0943 12.5364 17.8718 13.2013 17.4152C17.7391 14.3521 20.0816 12.8038 20.2287 12.7704C20.3324 12.7469 20.4762 12.7173 20.5736 12.8039C20.671 12.8904 20.6614 13.0544 20.6511 13.0984C20.5882 13.3666 18.0959 15.6837 16.8061 16.8827C16.404 17.2565 16.1188 17.5217 16.0605 17.5823C15.9299 17.7179 15.7968 17.8462 15.6688 17.9696C14.8786 18.7314 14.2859 19.3027 15.7017 20.2356C16.382 20.6839 16.9264 21.0547 17.4695 21.4245C18.0626 21.8284 18.6542 22.2313 19.4197 22.7331C19.6147 22.8609 19.8009 22.9937 19.9823 23.123C20.6726 23.6151 21.2928 24.0572 22.0589 23.9867C22.5041 23.9457 22.9639 23.5271 23.1975 22.2786C23.7494 19.3281 24.8343 12.9352 25.085 10.3008C25.107 10.07 25.0793 9.77466 25.0571 9.64499C25.035 9.51533 24.9886 9.33058 24.82 9.19381C24.6204 9.03185 24.3123 8.99769 24.1744 9.00012C23.5478 9.01116 22.5864 9.34545 17.9597 11.2699Z" fill="black"/>
</g>
<defs>
<clipPath id="clip0_6_3370">
<rect width="33.3205" height="33.3203" fill="white" transform="translate(0.505371)"/>
</clipPath>
</defs>
</svg>
