<svg width="100" height="100" viewBox="0 0 100 100" fill="none" xmlns="http://www.w3.org/2000/svg">
<path fill-rule="evenodd" clip-rule="evenodd" d="M8.48014 7.45617C1.59119 14.3451 1.59119 25.4326 1.59119 47.6076V51.5276C1.59119 73.7026 1.59119 84.7903 8.48014 91.6794C15.3691 98.5682 26.4567 98.5682 48.632 98.5682H52.552C74.7273 98.5682 85.8147 98.5682 92.7038 91.6794C99.5926 84.7903 99.5926 73.7026 99.5926 51.5276V47.6076C99.5926 25.4326 99.5926 14.3451 92.7038 7.45617C85.8147 0.567261 74.7273 0.567261 52.552 0.567261H48.632C26.4567 0.567261 15.3691 0.567261 8.48014 7.45617Z" fill="white"/>
<path fill-rule="evenodd" clip-rule="evenodd" d="M8.48014 7.45617C1.59119 14.3451 1.59119 25.4326 1.59119 47.6076V51.5276C1.59119 73.7026 1.59119 84.7903 8.48014 91.6794C15.3691 98.5682 26.4567 98.5682 48.632 98.5682H52.552C74.7273 98.5682 85.8147 98.5682 92.7038 91.6794C99.5926 84.7903 99.5926 73.7026 99.5926 51.5276V47.6076C99.5926 25.4326 99.5926 14.3451 92.7038 7.45617C85.8147 0.567261 74.7273 0.567261 52.552 0.567261H48.632C26.4567 0.567261 15.3691 0.567261 8.48014 7.45617ZM18.1291 30.3762C18.6599 55.8565 31.4 71.1688 53.7361 71.1688H55.0023V56.5912C63.21 57.4079 69.4164 63.4106 71.907 71.1688H83.5044C80.3194 59.572 71.9479 53.1612 66.7211 50.7112C71.9479 47.6894 79.2982 40.3394 81.0538 30.3762H70.5185C68.2317 38.4612 61.4541 45.8112 55.0023 46.5053V30.3762H44.4667V58.6329C37.9335 56.9997 29.685 49.0779 29.3176 30.3762H18.1291Z" fill="#2082FF"/>
</svg>
