<svg width="34" height="34" viewBox="0 0 34 34" fill="none" xmlns="http://www.w3.org/2000/svg">
<path fill-rule="evenodd" clip-rule="evenodd" d="M2.88326 2.5351C0.541016 4.87734 0.541016 8.6471 0.541016 16.1866V17.5194C0.541016 25.0589 0.541016 28.8287 2.88326 31.171C5.22552 33.5132 8.9953 33.5132 16.5349 33.5132H17.8677C25.4073 33.5132 29.177 33.5132 31.5193 31.171C33.8615 28.8287 33.8615 25.0589 33.8615 17.5194V16.1866C33.8615 8.6471 33.8615 4.87734 31.5193 2.5351C29.177 0.192871 25.4073 0.192871 17.8677 0.192871H16.5349C8.9953 0.192871 5.22552 0.192871 2.88326 2.5351ZM6.16392 10.3279C6.34439 18.9912 10.676 24.1974 18.2703 24.1974H18.7008V19.241C21.4914 19.5187 23.6016 21.5596 24.4484 24.1974H28.3915C27.3086 20.2545 24.4623 18.0748 22.6852 17.2418C24.4623 16.2144 26.9614 13.7154 27.5583 10.3279H23.9763C23.1988 13.0768 20.8944 15.5758 18.7008 15.8118V10.3279H15.1187V19.9352C12.8974 19.3799 10.0929 16.6865 9.96799 10.3279H6.16392Z" fill="#2082FF"/>
</svg>
